<?xml version="1.0" standalone="no"?>
<svg t="1728967111226"
  class="icon" viewBox="0 0 1024 1024" version="1.1" xmlns="http://www.w3.org/2000/svg" p-id="14218"
  xmlns:xlink="http://www.w3.org/1999/xlink" width="256" height="256">
  <path
    d="M425.514667 768h172.970666c5.632-51.285333 31.786667-93.610667 74.24-139.818667 4.821333-5.205333 35.498667-36.992 39.125334-41.514666A256.042667 256.042667 0 0 0 512.042667 170.666667a256 256 0 0 0-199.978667 415.914666c3.669333 4.565333 34.432 36.394667 39.168 41.557334 42.496 46.250667 68.650667 88.576 74.282667 139.861333zM597.333333 853.333333h-170.666666v42.666667h170.666666v-42.666667z m-351.829333-213.333333a341.333333 341.333333 0 1 1 532.906667 0.085333C751.957333 673.024 682.666667 725.333333 682.666667 789.333333V896a85.333333 85.333333 0 0 1-85.333334 85.333333h-170.666666a85.333333 85.333333 0 0 1-85.333334-85.333333v-106.666667C341.333333 725.333333 272 673.024 245.504 640zM554.666667 426.837333h106.666666l-192 256v-170.666666H362.666667L554.666667 256v170.88-0.042667z"
    fill="#000000" p-id="14219"></path>
</svg>