<svg width="400.000000" height="400.000000" viewBox="0 0 400 400" fill="none" xmlns="http://www.w3.org/2000/svg"
  xmlns:xlink="http://www.w3.org/1999/xlink">
  <desc>
    Created with Pixso.
  </desc>
  <defs>
    <clipPath id="clip0_3">
      <rect id="svg" width="400.000000" height="400.000000" fill="none" fill-opacity="0" />
    </clipPath>
  </defs>
  <g clip-path="url(#clip0_3)">
    <path id="path"
      d="M202.62 268C182.33 268 164.5 258.66 154.66 251.2C149.13 246.84 148.52 238.75 152.82 233.77C157.12 228.17 165.12 227.55 170.03 231.91C171.26 233.15 202.01 256.79 230.9 231.91C235.82 227.55 243.81 228.17 248.12 233.15C252.42 238.13 251.81 246.22 246.89 250.57C232.75 263.64 216.76 268 202.62 268Z"
      fill="#ffffff" fill-opacity="1.000000" fill-rule="nonzero" />
    <path id="path"
      d="M290.65 364C287.79 364 284.21 363.28 281.35 361.85L199.86 328.95L118.36 361.85C110.49 365.43 101.2 364 94.77 358.99C87.62 353.98 84.04 346.12 84.76 337.53L91.19 249.56L34.71 182.33C29 175.89 27.57 166.6 30.42 158.73C33.28 150.86 39.72 144.42 48.3 142.28L133.37 120.82L179.84 46.44C184.13 39.29 191.99 35 200.57 35C209.15 35 217.01 39.29 221.3 46.44L267.77 120.82L352.84 142.28C361.42 144.42 367.86 150.14 370.71 158.73C373.57 166.6 371.43 175.89 366.43 182.33L309.95 249.56L316.38 337.53C317.1 346.12 313.52 353.98 306.37 358.99C301.37 362.57 296.37 364 290.65 364ZM199.86 299.63C202 299.63 203.43 299.63 205.57 300.34L286.36 333.24L279.92 245.98C279.92 242.41 280.64 238.83 283.5 235.97L339.97 168.74L254.9 147.28C251.33 146.57 248.47 144.42 246.32 140.85L199.86 67.18L153.39 141.56C151.24 144.42 148.38 147.28 144.81 148L59.74 169.46L116.21 236.69C118.36 239.55 119.79 243.12 119.79 246.7L113.35 333.96L194.14 301.06C196.28 299.63 198.43 299.63 199.86 299.63Z"
      fill="#ffffff" fill-opacity="1.000000" fill-rule="nonzero" />
  </g>
</svg>