<?xml version="1.0" standalone="no"?>
<svg t="1728966714232"
  class="icon" viewBox="0 0 1024 1024" version="1.1" xmlns="http://www.w3.org/2000/svg" p-id="7323"
  xmlns:xlink="http://www.w3.org/1999/xlink" width="256" height="256">
  <path
    d="M733.013333 503.893333h-185.173333V264.106667a35.84 35.84 0 0 0-72.106667 0v240.213333a72.106667 72.106667 0 0 0 72.106667 72.106667h185.173333a35.84 35.84 0 0 0 0-72.106667z m90.026667 319.146667A439.893333 439.893333 0 1 1 341.333333 106.666667a439.893333 439.893333 0 0 1 481.706667 716.373333zM512 0a512 512 0 1 0 512 512A512 512 0 0 0 512 0z"
    fill="#ffffff" p-id="7324"></path>
</svg>