<?xml version="1.0" standalone="no"?><!DOCTYPE svg PUBLIC "-//W3C//DTD SVG 1.1//EN" "http://www.w3.org/Graphics/SVG/1.1/DTD/svg11.dtd"><svg t="1728896852090" class="icon" viewBox="0 0 1066 1024" version="1.1" xmlns="http://www.w3.org/2000/svg" p-id="5199" xmlns:xlink="http://www.w3.org/1999/xlink" width="208.203125" height="200"><path d="M876.373333 719.36H190.293333c-32.426667-0.085333-58.624-27.221333-58.709333-60.757333V226.218667c0.085333-40.96 32.170667-74.154667 71.765333-74.24H876.373333c32.426667 0.085333 58.624 27.221333 58.709334 60.714666v445.909334c-0.085333 33.536-26.325333 60.672-58.709334 60.714666zM203.349333 192.426667a33.194667 33.194667 0 0 0-32.597333 33.706666v432.426667c0 5.376 2.048 10.538667 5.717333 14.336a19.242667 19.242667 0 0 0 13.824 5.930667h686.08c5.162667 0 10.154667-2.133333 13.824-5.973334a20.608 20.608 0 0 0 5.717334-14.293333V212.736a19.925333 19.925333 0 0 0-19.541334-20.266667H203.349333z" fill="#1296db" p-id="5200"></path><path d="M467.541333 344.490667a42.666667 42.666667 0 0 0-5.674666 21.290666v139.776a42.666667 42.666667 0 0 0 63.957333 36.992l121.472-69.888a42.666667 42.666667 0 0 0 0-73.984l-121.472-69.888a42.666667 42.666667 0 0 0-58.282667 15.701334z m36.992 161.066666V365.781333l121.472 69.888-121.472 69.888zM820.010667 843.818667H235.946667c-14.421333 0-26.112-9.557333-26.112-21.333334s11.690667-21.333333 26.112-21.333333h584.021333c14.378667 0 26.069333 9.557333 26.069333 21.333333s-11.690667 21.333333-26.069333 21.333334z" fill="#1296db" p-id="5201"></path></svg>