<?xml version="1.0" standalone="no"?>
<!DOCTYPE svg PUBLIC "-//W3C//DTD SVG 1.1//EN" "http://www.w3.org/Graphics/SVG/1.1/DTD/svg11.dtd">
<svg t="1728921479531"
  class="icon" viewBox="0 0 1024 1024" version="1.1" xmlns="http://www.w3.org/2000/svg" p-id="5152"
  xmlns:xlink="http://www.w3.org/1999/xlink" width="200" height="200">
  <path d="M512 512m-416 0a416 416 0 1 0 832 0 416 416 0 1 0-832 0Z" fill="none" stroke="#000000" stroke-width="60"
    p-id="5153"></path>
  <path
    d="M430.464 287.808c1.568-8.864 7.84-13.792 18.848-14.816 16.48-1.536 36.224-3.264 55.712 11.168 19.52 14.4 49.44 46.592 48.32 63.296-0.768 11.104-4.256 29.984-10.528 56.64 60.544-28.8 91.584-44.032 93.184-45.664 2.4-2.464 25.728 2.976 34.4 5.696 8.704 2.688 26.112-4.832 31.808-4.16 5.728 0.704 18.24 21.952 17.792 29.056-0.48 7.04 0 19.456-1.792 26.88-1.824 7.392 0.8 24.032 0 33.824-0.8 9.824-6.912 12.8-10.272 11.072-3.36-1.792-7.84 4.608-10.368 8.8-2.528 4.16-24.608-5.6-31.904-6.304-7.296-0.672-33.792-2.56-52.768 0-12.64 1.728-36.256 7.104-70.816 16.16-16.064 6.496-25.504 11.104-28.32 13.856-4.224 4.16-52.032 127.232-56.48 137.6-4.48 10.304-39.104 78.56-44.864 82.24-5.76 3.648-40.32 20.96-65.76 22.336-25.472 1.376-41.216 0.864-59.232-12.64-18.016-13.536-24.64-23.616 4.672-35.776 29.344-12.16 63.808-57.248 80.384-81.728 16.544-24.512 60.288-89.6 60.288-94.144 0-4.576 1.984-4.576-13.92-2.24-15.904 2.24-41.696 6.144-59.488 9.376-17.792 3.2-41.248 10.56-49.312 6.048-8.096-4.544-27.84-44.576-25.728-59.616 2.08-15.04-7.328-33.44 2.08-31.936 9.376 1.504 19.776 8.32 44.224 11.008 24.48 2.72 114.88-18.368 118.688-18.976 3.776-0.608 2.848-14.4 2.848-22.368 0-7.936-1.28-72.768-10.336-85.984a67.68 67.68 0 0 1-11.36-28.704zM512 559.36l8.128-1.152-5.92-14.208 44.8 19.776v-10.496c29.28 4.608 48.096 8.8 56.448 12.48 12.48 5.6 120.032 84.672 131.776 99.744 11.776 15.104 0 53.6-16.48 75.776-16.48 22.176-30.016 6.016-42.464-13.12-8.256-12.736-67.04-68.992-176.288-168.8z"
    fill="#000000" p-id="5154"></path>
</svg>