<svg xmlns="http://www.w3.org/2000/svg" xmlns:xlink="http://www.w3.org/1999/xlink" viewBox="0 0 1024 1024">
  <path
    d="M512 0C228.266667 0 0 228.266667 0 512s228.266667 512 512 512 512-228.266667 512-512S795.733333 0 512 0z m200.533333 418.133333L460.8 669.866667c-8.533333 8.533333-21.333333 12.8-34.133333 12.8-12.8 0-25.6-4.266667-34.133334-12.8l-81.066666-81.066667c-17.066667-21.333333-17.066667-46.933333 0-64 17.066667-17.066667 46.933333-17.066667 64 0L426.666667 576l221.866666-221.866667c17.066667-17.066667 46.933333-17.066667 64 0 17.066667 17.066667 17.066667 46.933333 0 64z"
    p-id="13337"></path>
</svg>