<svg xmlns="http://www.w3.org/2000/svg" xmlns:xlink="http://www.w3.org/1999/xlink" viewBox="0 0 24 24" width="24"
  height="24" style="width: 24px; height: 24px;">
  <path
    d="M12 5C9.48178 5 7.283 5.1281 5.73089 5.25397C4.65221 5.34145 3.81611 6.16547 3.72 7.23449C3.60607 8.50175 3.5 10.17295 3.5 12C3.5 13.82705 3.60607 15.49825 3.72 16.7655C3.81611 17.83455 4.65221 18.65855 5.73089 18.74605C7.283 18.8719 9.48178 19 12 19C14.5185 19 16.7174 18.8719 18.2696 18.746C19.3481 18.65855 20.184 17.83475 20.2801 16.766C20.394 15.4993 20.5 13.8284 20.5 12C20.5 10.1716 20.394 8.50072 20.2801 7.234C20.184 6.16525 19.3481 5.34148 18.2696 5.254C16.7174 5.12813 14.5185 5 12 5zM5.60965 3.75888C7.19232 3.63054 9.43258 3.5 12 3.5C14.5677 3.5 16.8081 3.63056 18.3908 3.75892C20.1881 3.90468 21.6118 5.29474 21.7741 7.09968C21.8909 8.39885 22 10.116 22 12C22 13.884 21.8909 15.60115 21.7741 16.9003C21.6118 18.7053 20.1881 20.09535 18.3908 20.2411C16.8081 20.3694 14.5677 20.5 12 20.5C9.43258 20.5 7.19232 20.3695 5.60965 20.2411C3.81206 20.09535 2.38831 18.70495 2.22603 16.8998C2.10918 15.6002 2 13.88275 2 12C2 10.11725 2.10918 8.39982 2.22603 7.10018C2.38831 5.29507 3.81206 3.90465 5.60965 3.75888z"
    fill="currentColor"></path>
  <path
    d="M5.62369 9.4371C5.85155 9.09121 6.31668 8.99552 6.66258 9.22339L11.5857 12.47775C11.8368 12.6442 12.16315 12.6442 12.4143 12.47775L17.3374 9.22339C17.6833 8.99552 18.1484 9.09121 18.3763 9.4371C18.60415 9.783 18.5085 10.24815 18.16255 10.476L13.2395 13.7304C12.4877 14.22665 11.5123 14.22665 10.7605 13.7304L5.83741 10.476C5.49151 10.24815 5.39582 9.783 5.62369 9.4371z"
    fill="currentColor"></path>
</svg>