<?xml version="1.0" standalone="no"?><!DOCTYPE svg PUBLIC "-//W3C//DTD SVG 1.1//EN" "http://www.w3.org/Graphics/SVG/1.1/DTD/svg11.dtd"><svg t="1732523833774" class="icon" viewBox="0 0 1024 1024" version="1.1" xmlns="http://www.w3.org/2000/svg" p-id="6943" xmlns:xlink="http://www.w3.org/1999/xlink" width="200" height="200"><path d="M512 938.7C276.7 938.7 85.3 747.3 85.3 512S276.7 85.3 512 85.3 938.7 276.7 938.7 512 747.3 938.7 512 938.7z m0-810.7c-211.7 0-384 172.3-384 384s172.3 384 384 384 384-172.3 384-384-172.3-384-384-384z" fill="#1296db" p-id="6944"></path><path d="M483.4 640c-0.2-6.5-0.3-11.4-0.3-14.6 0-19.1 2.7-35.7 8.1-49.6 4-10.5 10.4-21 19.2-31.7 6.5-7.8 18.2-19.1 35.1-34 16.9-14.9 27.8-26.8 32.9-35.6s7.6-18.5 7.6-29c0-19-7.4-35.6-22.2-50-14.8-14.3-33-21.5-54.4-21.5-20.8 0-38.1 6.5-52 19.5-13.9 13-23 33.3-27.4 60.9l-50.1-6c4.5-37 17.9-65.4 40.2-85 22.3-19.7 51.8-29.5 88.4-29.5 38.8 0 69.8 10.6 92.9 31.7 23.1 21.1 34.7 46.7 34.7 76.6 0 17.3-4.1 33.3-12.2 47.9s-24 32.4-47.7 53.4c-15.9 14.1-26.3 24.5-31.1 31.1s-8.5 14.4-10.8 23c-2.4 8.7-3.7 22.8-4.1 42.3h-46.8z m-3 97.8v-55.5h55.5v55.5h-55.5z" fill="#1296db" p-id="6945"></path></svg>