<svg xmlns="http://www.w3.org/2000/svg" xmlns:xlink="http://www.w3.org/1999/xlink" viewBox="0 0 24 24" width="24"
  height="24" style="width: 24px; height: 24px;">
  <path
    d="M12.46243 3.75C10.92053 3.75 9.69403 3.77671 8.74466 3.8122C7.58974 3.8554 6.70242 4.84344 6.70242 6.10178L6.70242 17.6961C6.70242 19.02155 7.69073 20.1053 8.94591 20.1589C10.09925 20.20815 11.39535 20.25 12.46243 20.25C13.52952 20.25 14.82562 20.20815 15.97896 20.1589C17.23411 20.1053 18.22243 19.02155 18.22243 17.6961L18.22243 6.10177C18.22243 4.84344 17.33515 3.8554 16.18017 3.8122C15.23083 3.77671 14.00424 3.75 12.46243 3.75zM8.693 2.31317C9.66082 2.27698 10.90469 2.25 12.46243 2.25C14.02018 2.25 15.264 2.27698 16.23183 2.31317C18.21327 2.38727 19.66243 4.09103 19.66243 6.10177L19.66243 17.6961C19.66243 19.80915 18.08093 21.5704 16.0379 21.6576C14.87823 21.70715 13.55909 21.75 12.46243 21.75C11.36578 21.75 10.0466 21.70715 8.88694 21.6576C6.84394 21.5704 5.26242 19.80915 5.26242 17.6961L5.26242 6.10178C5.26242 4.09103 6.71162 2.38727 8.693 2.31317z"
    fill="currentColor"></path>
  <path
    d="M10.33838 6.37498C10.33838 5.98148 10.64463 5.66248 11.02239 5.66248L13.90239 5.66248C14.28015 5.66248 14.58639 5.98148 14.58639 6.37498C14.58639 6.76848 14.28015 7.08748 13.90239 7.08748L11.02239 7.08748C10.64463 7.08748 10.33838 6.76848 10.33838 6.37498z"
    fill="currentColor"></path>
  <path
    d="M13.42214 17.4997C13.42214 18.05185 12.99245 18.4995 12.46243 18.4995C11.93237 18.4995 11.50262 18.05185 11.50262 17.4997C11.50262 16.9476 11.93237 16.5 12.46243 16.5C12.99245 16.5 13.42214 16.9476 13.42214 17.4997z"
    fill="currentColor"></path>
</svg>